<svg xmlns="http://www.w3.org/2000/svg" width="980" height="620" viewBox="0 0 980 620" role="img" aria-label="Synthetic WUI boundary scaling plot">
  <rect x="0" y="0" width="980" height="620" fill="#ffffff" />
  <text x="120" y="42" font-size="30" font-weight="700" fill="#234A65">Synthetic WUI boundary scaling demo</text>
  <text x="120" y="68" font-size="16" fill="#445">Boundary length decreases slightly as epsilon gets coarser in this synthetic run.</text>
  <line x1="120" y1="95.0" x2="930" y2="95.0" stroke="#e1e1e1" stroke-width="1" />
<line x1="120" y1="202.5" x2="930" y2="202.5" stroke="#e1e1e1" stroke-width="1" />
<line x1="120" y1="310.0" x2="930" y2="310.0" stroke="#e1e1e1" stroke-width="1" />
<line x1="120" y1="417.5" x2="930" y2="417.5" stroke="#e1e1e1" stroke-width="1" />
<line x1="120" y1="525.0" x2="930" y2="525.0" stroke="#e1e1e1" stroke-width="1" />
  <line x1="120.0" y1="95" x2="120.0" y2="525" stroke="#e1e1e1" stroke-width="1" />
<line x1="282.0" y1="95" x2="282.0" y2="525" stroke="#e1e1e1" stroke-width="1" />
<line x1="444.0" y1="95" x2="444.0" y2="525" stroke="#e1e1e1" stroke-width="1" />
<line x1="606.0" y1="95" x2="606.0" y2="525" stroke="#e1e1e1" stroke-width="1" />
<line x1="768.0" y1="95" x2="768.0" y2="525" stroke="#e1e1e1" stroke-width="1" />
<line x1="930.0" y1="95" x2="930.0" y2="525" stroke="#e1e1e1" stroke-width="1" />
  <line x1="120" y1="525" x2="930" y2="525" stroke="#505050" stroke-width="1.5" />
  <line x1="120" y1="95" x2="120" y2="525" stroke="#505050" stroke-width="1.5" />
  <text x="120.00" y="557" text-anchor="middle" font-size="15" fill="#334">1.00</text>
<text x="282.00" y="557" text-anchor="middle" font-size="15" fill="#334">6.80</text>
<text x="444.00" y="557" text-anchor="middle" font-size="15" fill="#334">12.6</text>
<text x="606.00" y="557" text-anchor="middle" font-size="15" fill="#334">18.4</text>
<text x="768.00" y="557" text-anchor="middle" font-size="15" fill="#334">24.2</text>
<text x="930.00" y="557" text-anchor="middle" font-size="15" fill="#334">30.0</text>
  <text x="106" y="530.00" text-anchor="end" font-size="15" fill="#334">730</text>
<text x="106" y="422.50" text-anchor="end" font-size="15" fill="#334">732</text>
<text x="106" y="315.00" text-anchor="end" font-size="15" fill="#334">735</text>
<text x="106" y="207.50" text-anchor="end" font-size="15" fill="#334">737</text>
<text x="106" y="100.00" text-anchor="end" font-size="15" fill="#334">739</text>
  <polyline fill="none" stroke="#234A65" stroke-width="2.8" points="120.00,114.55 235.71,126.05 351.43,152.72 467.14,194.13 582.86,265.95 698.57,338.54 814.29,423.92 930.00,505.45" />
  <circle cx="120.00" cy="114.55" r="3.8" fill="#234A65" />
<circle cx="235.71" cy="126.05" r="3.8" fill="#234A65" />
<circle cx="351.43" cy="152.72" r="3.8" fill="#234A65" />
<circle cx="467.14" cy="194.13" r="3.8" fill="#234A65" />
<circle cx="582.86" cy="265.95" r="3.8" fill="#234A65" />
<circle cx="698.57" cy="338.54" r="3.8" fill="#234A65" />
<circle cx="814.29" cy="423.92" r="3.8" fill="#234A65" />
<circle cx="930.00" cy="505.45" r="3.8" fill="#234A65" />
  <text x="525.00" y="582" text-anchor="middle" font-size="17" fill="#1f2e38">Measurement scale, epsilon (effective ruler length / resolution)</text>
  <text x="32" y="310.00" text-anchor="middle" font-size="17" fill="#1f2e38" transform="rotate(-90 32 310.00)">Measured boundary length, L_d(epsilon)</text>
  <rect x="138" y="111" width="470" height="74" fill="#ffffff" opacity="0.96" stroke="#d9dee2" rx="8" />
  <line x1="152" y1="138" x2="206" y2="138" stroke="#234A65" stroke-width="2.8" />
  <circle cx="179" cy="138" r="4" fill="#234A65" />
  <text x="216" y="143" font-size="14" fill="#233">Synthetic delineation: parcel_v0.35_r120_touches</text>
  <text x="152" y="167" font-size="14" fill="#233">Log-log slope estimate: -0.0031; evaluated scales: 8</text>
</svg>
